<?xml version="1.0" encoding="utf-8"?>
<!-- Generator: Adobe Illustrator 26.0.0, SVG Export Plug-In . SVG Version: 6.00 Build 0)  -->
<svg version="1.1" id="图层_1" xmlns="http://www.w3.org/2000/svg" xmlns:xlink="http://www.w3.org/1999/xlink" x="0px" y="0px"
	 viewBox="0 0 316.8 252" style="enable-background:new 0 0 316.8 252;" xml:space="preserve">
<style type="text/css">
	.st0{fill:none;}
	.st1{fill:#FFFFFF;}
	.st2{fill:none;stroke:#EBEBEB;stroke-width:0.53;stroke-linejoin:round;stroke-miterlimit:10;}
	.st3{fill:none;stroke:#EBEBEB;stroke-width:1.07;stroke-linejoin:round;stroke-miterlimit:10;}
	.st4{fill:#CCCCCC;stroke:#000000;stroke-width:0.71;stroke-linecap:round;stroke-linejoin:round;stroke-miterlimit:10;}
	.st5{fill:#592C93;stroke:#000000;stroke-width:0.71;stroke-linecap:round;stroke-linejoin:round;stroke-miterlimit:10;}
	.st6{fill:#D15B69;stroke:#000000;stroke-width:0.71;stroke-linecap:round;stroke-linejoin:round;stroke-miterlimit:10;}
	
		.st7{fill:none;stroke:#000000;stroke-width:1.07;stroke-linejoin:round;stroke-miterlimit:10;stroke-dasharray:1.42,4.27,5.69,4.27;}
	.st8{fill:none;stroke:#333333;stroke-width:1.07;stroke-linecap:round;stroke-linejoin:round;stroke-miterlimit:10;}
	.st9{fill:#4D4D4D;}
	.st10{font-family:'ArialMT';}
	.st11{font-size:8.8px;}
	.st12{fill:none;stroke:#333333;stroke-width:1.07;stroke-linejoin:round;stroke-miterlimit:10;}
	.st13{font-size:11px;}
	.st14{enable-background:new    ;}
	.st15{letter-spacing:3;}
</style>
<rect x="28.2" y="5.5" class="st0" width="210.6" height="215"/>
<g>
	<rect x="28.2" y="5.5" class="st1" width="210.6" height="215"/>
	<line class="st2" x1="28.2" y1="193.6" x2="238.8" y2="193.6"/>
	<line class="st2" x1="28.2" y1="139.9" x2="238.8" y2="139.9"/>
	<line class="st2" x1="28.2" y1="86.1" x2="238.8" y2="86.1"/>
	<line class="st2" x1="28.2" y1="32.4" x2="238.8" y2="32.4"/>
	<line class="st2" x1="53.8" y1="220.5" x2="53.8" y2="5.5"/>
	<line class="st2" x1="85.7" y1="220.5" x2="85.7" y2="5.5"/>
	<line class="st2" x1="117.6" y1="220.5" x2="117.6" y2="5.5"/>
	<line class="st2" x1="149.5" y1="220.5" x2="149.5" y2="5.5"/>
	<line class="st2" x1="181.4" y1="220.5" x2="181.4" y2="5.5"/>
	<line class="st2" x1="213.3" y1="220.5" x2="213.3" y2="5.5"/>
	<line class="st3" x1="28.2" y1="220.5" x2="238.8" y2="220.5"/>
	<line class="st3" x1="28.2" y1="166.8" x2="238.8" y2="166.8"/>
	<line class="st3" x1="28.2" y1="113" x2="238.8" y2="113"/>
	<line class="st3" x1="28.2" y1="59.2" x2="238.8" y2="59.2"/>
	<line class="st3" x1="28.2" y1="5.5" x2="238.8" y2="5.5"/>
	<line class="st3" x1="37.8" y1="220.5" x2="37.8" y2="5.5"/>
	<line class="st3" x1="69.7" y1="220.5" x2="69.7" y2="5.5"/>
	<line class="st3" x1="101.6" y1="220.5" x2="101.6" y2="5.5"/>
	<line class="st3" x1="133.5" y1="220.5" x2="133.5" y2="5.5"/>
	<line class="st3" x1="165.4" y1="220.5" x2="165.4" y2="5.5"/>
	<line class="st3" x1="197.3" y1="220.5" x2="197.3" y2="5.5"/>
	<line class="st3" x1="229.2" y1="220.5" x2="229.2" y2="5.5"/>
	<circle class="st4" cx="71.4" cy="177.3" r="2.5"/>
	<circle class="st5" cx="80.9" cy="143.3" r="4.1"/>
	<circle class="st4" cx="81.6" cy="179.6" r="2.5"/>
	<circle class="st4" cx="83.3" cy="178.5" r="2.5"/>
	<circle class="st5" cx="85.4" cy="134" r="4.1"/>
	<circle class="st4" cx="85.8" cy="183.1" r="2.5"/>
	<circle class="st4" cx="177.5" cy="170.4" r="2.5"/>
	<circle class="st6" cx="179.1" cy="158.8" r="4.1"/>
	<circle class="st6" cx="181.5" cy="97.8" r="4.1"/>
	<circle class="st4" cx="182.7" cy="181.7" r="2.5"/>
	<circle class="st4" cx="184.7" cy="174.6" r="2.5"/>
	<circle class="st6" cx="184.8" cy="151.9" r="4.1"/>
	<circle class="st6" cx="185" cy="71.5" r="4.1"/>
	<circle class="st4" cx="186.1" cy="172.1" r="2.5"/>
	<circle class="st4" cx="187.8" cy="176.2" r="2.5"/>
	<circle class="st6" cx="188.9" cy="146.7" r="4.1"/>
	<circle class="st6" cx="190.2" cy="47.4" r="4.1"/>
	<circle class="st6" cx="193.2" cy="77.2" r="4.1"/>
	<circle class="st6" cx="193.3" cy="88.3" r="4.1"/>
	<circle class="st6" cx="194.2" cy="97.6" r="4.1"/>
	<circle class="st6" cx="195.2" cy="142.2" r="4.1"/>
	<circle class="st6" cx="195.2" cy="145.8" r="4.1"/>
	<circle class="st6" cx="196.4" cy="156" r="4.1"/>
	<circle class="st4" cx="197" cy="180.8" r="2.5"/>
	<circle class="st4" cx="197" cy="174.6" r="2.5"/>
	<circle class="st4" cx="197.8" cy="180.8" r="2.5"/>
	<circle class="st6" cx="198.3" cy="160.7" r="4.1"/>
	<circle class="st4" cx="199.4" cy="172.2" r="2.5"/>
	<circle class="st6" cx="200.6" cy="127.9" r="4.1"/>
	<circle class="st6" cx="200.6" cy="77.9" r="4.1"/>
	<circle class="st4" cx="201.3" cy="168" r="2.5"/>
	<circle class="st4" cx="201.4" cy="168" r="2.5"/>
	<circle class="st6" cx="204.1" cy="57.4" r="4.1"/>
	<circle class="st6" cx="204.2" cy="137.7" r="4.1"/>
	<circle class="st6" cx="210.4" cy="78.3" r="4.1"/>
	<circle class="st6" cx="210.7" cy="47.4" r="4.1"/>
	<circle class="st6" cx="214.3" cy="52.6" r="4.1"/>
	<circle class="st6" cx="215.4" cy="47.4" r="4.1"/>
	<line class="st7" x1="28.2" y1="220.5" x2="238.8" y2="220.5"/>
	<line class="st7" x1="28.2" y1="166.8" x2="238.8" y2="166.8"/>
	<line class="st7" x1="133.5" y1="220.5" x2="133.5" y2="5.5"/>
	<rect x="28.2" y="5.5" class="st8" width="210.6" height="215"/>
</g>
<rect x="18.4" y="216.1" class="st0" width="4.9" height="10.4"/>
<text transform="matrix(1 0 0 1 18.416 223.6499)" class="st9 st10 st11">0</text>
<rect x="18.4" y="162.3" class="st0" width="4.9" height="10.4"/>
<text transform="matrix(1 0 0 1 18.416 169.8999)" class="st9 st10 st11">2</text>
<rect x="18.4" y="108.6" class="st0" width="4.9" height="10.4"/>
<text transform="matrix(1 0 0 1 18.416 116.1401)" class="st9 st10 st11">4</text>
<rect x="18.4" y="54.8" class="st0" width="4.9" height="10.4"/>
<text transform="matrix(1 0 0 1 18.416 62.3901)" class="st9 st10 st11">6</text>
<rect x="18.4" y="1.1" class="st0" width="4.9" height="10.4"/>
<text transform="matrix(1 0 0 1 18.416 8.6299)" class="st9 st10 st11">8</text>
<line class="st12" x1="25.5" y1="220.5" x2="28.2" y2="220.5"/>
<line class="st12" x1="25.5" y1="166.8" x2="28.2" y2="166.8"/>
<line class="st12" x1="25.5" y1="113" x2="28.2" y2="113"/>
<line class="st12" x1="25.5" y1="59.2" x2="28.2" y2="59.2"/>
<line class="st12" x1="25.5" y1="5.5" x2="28.2" y2="5.5"/>
<line class="st12" x1="37.8" y1="223.2" x2="37.8" y2="220.5"/>
<line class="st12" x1="69.7" y1="223.2" x2="69.7" y2="220.5"/>
<line class="st12" x1="101.6" y1="223.2" x2="101.6" y2="220.5"/>
<line class="st12" x1="133.5" y1="223.2" x2="133.5" y2="220.5"/>
<line class="st12" x1="165.4" y1="223.2" x2="165.4" y2="220.5"/>
<line class="st12" x1="197.3" y1="223.2" x2="197.3" y2="220.5"/>
<line class="st12" x1="229.2" y1="223.2" x2="229.2" y2="220.5"/>
<rect x="33.9" y="224.2" class="st0" width="7.8" height="10.4"/>
<text transform="matrix(1 0 0 1 33.8975 231.7402)" class="st9 st10 st11">-3</text>
<rect x="65.8" y="224.2" class="st0" width="7.8" height="10.4"/>
<text transform="matrix(1 0 0 1 65.7979 231.7402)" class="st9 st10 st11">-2</text>
<rect x="97.7" y="224.2" class="st0" width="7.8" height="10.4"/>
<text transform="matrix(1 0 0 1 97.7075 231.7402)" class="st9 st10 st11">-1</text>
<rect x="131.1" y="224.2" class="st0" width="4.9" height="10.4"/>
<text transform="matrix(1 0 0 1 131.0728 231.7402)" class="st9 st10 st11">0</text>
<rect x="163" y="224.2" class="st0" width="4.9" height="10.4"/>
<text transform="matrix(1 0 0 1 162.9731 231.7402)" class="st9 st10 st11">1</text>
<rect x="194.9" y="224.2" class="st0" width="4.9" height="10.4"/>
<text transform="matrix(1 0 0 1 194.873 231.7402)" class="st9 st10 st11">2</text>
<rect x="226.8" y="224.2" class="st0" width="4.9" height="10.4"/>
<text transform="matrix(1 0 0 1 226.7729 231.7402)" class="st9 st10 st11">3</text>
<rect x="122.2" y="234.8" class="st0" width="22.6" height="13"/>
<text transform="matrix(1 0 0 1 122.2109 244.2002)" class="st10 st13">NES</text>
<rect x="3.9" y="86.9" class="st0" width="13.1" height="52.4"/>
<text transform="matrix(6.123234e-17 -1 1 6.123234e-17 13.3223 139.2812)" class="st14"><tspan x="0" y="0" class="st10 st13 st15">GSEAl</tspan><tspan x="48.7" y="0" class="st10 st13">-</tspan></text>
</svg>
