<?xml version="1.0" encoding="utf-8"?>
<!-- Generator: Adobe Illustrator 26.0.0, SVG Export Plug-In . SVG Version: 6.00 Build 0)  -->
<svg version="1.1" id="图层_1" xmlns="http://www.w3.org/2000/svg" xmlns:xlink="http://www.w3.org/1999/xlink" x="0px" y="0px"
	 viewBox="0 0 259.2 288" style="enable-background:new 0 0 259.2 288;" xml:space="preserve">
<style type="text/css">
	.st0{fill:#FFFFFF;}
	.st1{fill:none;}
	.st2{fill:#FFFFFF;stroke:#FFFFFF;stroke-width:1.26;stroke-linecap:round;stroke-linejoin:round;stroke-miterlimit:10;}
	.st3{fill:none;stroke:#EBEBEB;stroke-width:0.63;stroke-linejoin:round;stroke-miterlimit:10;}
	.st4{fill:none;stroke:#EBEBEB;stroke-width:1.26;stroke-linejoin:round;stroke-miterlimit:10;}
	.st5{fill:none;stroke:#E64B35;stroke-width:2.13;stroke-linejoin:round;stroke-miterlimit:10;}
	.st6{fill:none;stroke:#4DBBD5;stroke-width:2.13;stroke-linejoin:round;stroke-miterlimit:10;}
	.st7{fill:#E64B35;fill-opacity:0.3;}
	.st8{fill:#4DBBD5;fill-opacity:0.3;}
	.st9{fill:#E64B35;}
	.st10{font-family:'ArialMT';}
	.st11{font-size:13.75px;}
	.st12{fill:#4DBBD5;}
	.st13{font-size:14.23px;}
	.st14{fill:none;stroke:#000000;stroke-width:1.07;stroke-linejoin:round;stroke-miterlimit:10;stroke-dasharray:5.69,5.69;}
	.st15{fill:none;stroke:#333333;stroke-width:1.26;stroke-linecap:round;stroke-linejoin:round;stroke-miterlimit:10;}
	.st16{fill:#4D4D4D;}
	.st17{font-size:10.4px;}
	.st18{fill:none;stroke:#000000;stroke-width:1.26;stroke-linejoin:round;stroke-miterlimit:10;}
	.st19{enable-background:new    ;}
	.st20{font-size:13px;}
	.st21{font-size:15.6px;}
</style>
<rect class="st0" width="259.2" height="288"/>
<rect class="st1" width="259.2" height="288"/>
<g>
	<rect class="st2" width="259.2" height="288"/>
</g>
<rect x="47.8" y="70.6" class="st1" width="204.9" height="180.2"/>
<g>
	<rect x="47.8" y="70.6" class="st0" width="204.9" height="180.2"/>
	<line class="st3" x1="47.8" y1="222.1" x2="252.7" y2="222.1"/>
	<line class="st3" x1="47.8" y1="181.2" x2="252.7" y2="181.2"/>
	<line class="st3" x1="47.8" y1="140.2" x2="252.7" y2="140.2"/>
	<line class="st3" x1="47.8" y1="99.2" x2="252.7" y2="99.2"/>
	<line class="st3" x1="80.4" y1="250.8" x2="80.4" y2="70.6"/>
	<line class="st3" x1="127" y1="250.8" x2="127" y2="70.6"/>
	<line class="st3" x1="173.6" y1="250.8" x2="173.6" y2="70.6"/>
	<line class="st3" x1="220.1" y1="250.8" x2="220.1" y2="70.6"/>
	<line class="st4" x1="47.8" y1="242.6" x2="252.7" y2="242.6"/>
	<line class="st4" x1="47.8" y1="201.6" x2="252.7" y2="201.6"/>
	<line class="st4" x1="47.8" y1="160.7" x2="252.7" y2="160.7"/>
	<line class="st4" x1="47.8" y1="119.7" x2="252.7" y2="119.7"/>
	<line class="st4" x1="47.8" y1="78.8" x2="252.7" y2="78.8"/>
	<line class="st4" x1="57.1" y1="250.8" x2="57.1" y2="70.6"/>
	<line class="st4" x1="103.7" y1="250.8" x2="103.7" y2="70.6"/>
	<line class="st4" x1="150.3" y1="250.8" x2="150.3" y2="70.6"/>
	<line class="st4" x1="196.8" y1="250.8" x2="196.8" y2="70.6"/>
	<line class="st4" x1="243.4" y1="250.8" x2="243.4" y2="70.6"/>
	<polyline class="st5" points="57.1,78.8 57.1,78.8 57.1,80.2 57.4,80.2 57.4,80.2 58.3,80.2 58.3,80.2 58.4,80.2 58.4,81.6 
		58.4,81.6 58.4,81.6 58.5,81.6 58.5,81.6 59,81.6 59,83.2 59.1,83.2 59.1,83.2 59.2,83.2 59.2,84.7 59.7,84.7 59.7,87.8 61.3,87.8 
		61.3,89.4 62.3,89.4 62.3,91 63.6,91 63.6,92.5 63.8,92.5 63.8,94.1 64.9,94.1 64.9,94.1 65,94.1 65,94.1 66.2,94.1 66.2,94.1 
		66.2,94.1 66.2,95.8 67.4,95.8 67.4,97.4 68,97.4 68,99 68.8,99 68.8,99 69.5,99 69.5,100.7 70,100.7 70,102.3 70.2,102.3 
		70.2,104 70.2,104 70.2,104 71.3,104 71.3,107.3 71.4,107.3 71.4,109 71.5,109 71.5,109 72.7,109 72.7,109 72.8,109 72.8,110.8 
		72.9,110.8 72.9,110.8 73.2,110.8 73.2,110.8 73.7,110.8 73.7,110.8 73.9,110.8 73.9,110.8 74,110.8 74,112.7 74,112.7 74,112.7 
		75.2,112.7 75.2,114.5 75.2,114.5 75.2,116.4 75.3,116.4 75.3,118.3 76.4,118.3 76.4,118.3 76.5,118.3 76.5,118.3 76.6,118.3 
		76.6,118.3 77.9,118.3 77.9,118.3 78.2,118.3 78.2,120.4 78.6,120.4 78.6,122.5 79.2,122.5 79.2,122.5 80.2,122.5 80.2,122.5 
		80.5,122.5 80.5,124.7 81.8,124.7 81.8,124.7 81.8,124.7 81.8,124.7 82.1,124.7 82.1,124.7 82.6,124.7 82.6,124.7 83.8,124.7 
		83.8,124.7 84.3,124.7 84.3,124.7 85.3,124.7 85.3,124.7 85.6,124.7 85.6,124.7 85.7,124.7 85.7,124.7 86.1,124.7 86.1,127.4 
		86.9,127.4 86.9,127.4 87.5,127.4 87.5,130.2 88.2,130.2 88.2,130.2 88.4,130.2 88.4,130.2 89.7,130.2 89.7,130.2 90.8,130.2 
		90.8,130.2 90.8,130.2 90.8,130.2 94.6,130.2 94.6,130.2 96.1,130.2 96.1,130.2 98.1,130.2 98.1,130.2 98.6,130.2 98.6,130.2 
		98.6,130.2 98.6,130.2 99.4,130.2 99.4,130.2 99.9,130.2 99.9,130.2 99.9,130.2 99.9,130.2 101.2,130.2 101.2,130.2 101.2,130.2 
		101.2,130.2 103.7,130.2 103.7,135.1 103.7,135.1 103.7,135.1 103.8,135.1 103.8,135.1 105.1,135.1 105.1,135.1 106.3,135.1 
		106.3,135.1 107.6,135.1 107.6,135.1 108.1,135.1 108.1,135.1 108.2,135.1 108.2,135.1 108.8,135.1 108.8,135.1 110.1,135.1 
		110.1,135.1 110.2,135.1 110.2,135.1 112.8,135.1 112.8,135.1 113.1,135.1 113.1,135.1 124.4,135.1 124.4,135.1 127,135.1 
		127,135.1 129.7,135.1 129.7,135.1 137.1,135.1 137.1,150.4 153.6,150.4 153.6,150.4 162.4,150.4 162.4,168.9 167.2,168.9 
		167.2,168.9 184.2,168.9 184.2,168.9 186.5,168.9 186.5,205.7 229.4,205.7 229.4,205.7 	"/>
	<polyline class="st6" points="57.1,78.8 57.1,78.8 57.1,79.6 57.7,79.6 57.7,79.6 57.8,79.6 57.8,79.6 58.4,79.6 58.4,80.4 
		58.5,80.4 58.5,80.4 59.7,80.4 59.7,82.2 61,82.2 61,83 63.3,83 63.3,83 63.6,83 63.6,85.6 63.9,85.6 63.9,87.4 64.4,87.4 
		64.4,88.2 64.6,88.2 64.6,89.1 64.8,89.1 64.8,90 65.9,90 65.9,90.8 66.2,90.8 66.2,90.8 66.9,90.8 66.9,90.8 68.3,90.8 68.3,91.7 
		70.2,91.7 70.2,92.6 70.4,92.6 70.4,92.6 71.2,92.6 71.2,93.5 71.4,93.5 71.4,93.5 71.5,93.5 71.5,93.5 71.5,93.5 71.5,94.4 
		72.2,94.4 72.2,94.4 72.3,94.4 72.3,95.3 72.5,95.3 72.5,95.3 72.7,95.3 72.7,95.3 73.2,95.3 73.2,95.3 73.3,95.3 73.3,95.3 
		73.4,95.3 73.4,96.2 73.6,96.2 73.6,96.2 73.9,96.2 73.9,96.2 74,96.2 74,97.1 74,97.1 74,97.1 74.3,97.1 74.3,98.1 74.4,98.1 
		74.4,99 74.5,99 74.5,99 74.9,99 74.9,99 75.2,99 75.2,100 75.3,100 75.3,100 75.6,100 75.6,100 75.9,100 75.9,100 76.5,100 
		76.5,100 76.6,100 76.6,100 77.2,100 77.2,101 77.3,101 77.3,101 77.3,101 77.3,101 77.8,101 77.8,101 78,101 78,101 78.4,101 
		78.4,101 79.2,101 79.2,101 79.3,101 79.3,101 79.5,101 79.5,101 80.2,101 80.2,101 80.4,101 80.4,101 80.5,101 80.5,101 81.5,101 
		81.5,101 81.7,101 81.7,101 81.8,101 81.8,101 82.1,101 82.1,101 82.5,101 82.5,101 83.2,101 83.2,101 83.4,101 83.4,101 84.3,101 
		84.3,101 84.8,101 84.8,101 84.9,101 84.9,101 85.5,101 85.5,101 85.6,101 85.6,101 85.6,101 85.6,102.3 85.7,102.3 85.7,102.3 
		86.1,102.3 86.1,103.6 86.3,103.6 86.3,103.6 87.7,103.6 87.7,103.6 88.2,103.6 88.2,103.6 88.2,103.6 88.2,103.6 88.7,103.6 
		88.7,105 88.9,105 88.9,105 89.4,105 89.4,106.4 89.5,106.4 89.5,106.4 89.6,106.4 89.6,106.4 90.1,106.4 90.1,106.4 90.8,106.4 
		90.8,106.4 91,106.4 91,106.4 91.4,106.4 91.4,108 92.1,108 92.1,109.5 92.2,109.5 92.2,109.5 92.6,109.5 92.6,109.5 94.6,109.5 
		94.6,109.5 94.7,109.5 94.7,109.5 94.7,109.5 94.7,109.5 94.9,109.5 94.9,109.5 94.9,109.5 94.9,109.5 95.2,109.5 95.2,109.5 
		96.5,109.5 96.5,109.5 97.2,109.5 97.2,109.5 97.3,109.5 97.3,109.5 97.6,109.5 97.6,109.5 98.6,109.5 98.6,109.5 99.1,109.5 
		99.1,109.5 99.7,109.5 99.7,109.5 100.3,109.5 100.3,109.5 101.1,109.5 101.1,109.5 101.2,109.5 101.2,109.5 102,109.5 102,109.5 
		102.6,109.5 102.6,109.5 103.4,109.5 103.4,109.5 103.6,109.5 103.6,109.5 103.7,109.5 103.7,111.8 103.8,111.8 103.8,111.8 
		104.4,111.8 104.4,111.8 105,111.8 105,114.2 105.1,114.2 105.1,114.2 105.3,114.2 105.3,114.2 106.3,114.2 106.3,114.2 
		106.4,114.2 106.4,117 107.6,117 107.6,117 112.5,117 112.5,117 112.6,117 112.6,119.9 113.7,119.9 113.7,122.8 115.2,122.8 
		115.2,122.8 116.1,122.8 116.1,122.8 117.9,122.8 117.9,122.8 118,122.8 118,122.8 118.5,122.8 118.5,122.8 119.1,122.8 
		119.1,122.8 120.6,122.8 120.6,126.4 121.1,126.4 121.1,129.9 123.5,129.9 123.5,129.9 126.5,129.9 126.5,129.9 127.8,129.9 
		127.8,133.6 128.3,133.6 128.3,133.6 129.5,133.6 129.5,133.6 132.2,133.6 132.2,133.6 134.9,133.6 134.9,133.6 136.1,133.6 
		136.1,133.6 137.2,133.6 137.2,133.6 138.4,133.6 138.4,138.6 138.6,138.6 138.6,138.6 139.4,138.6 139.4,138.6 141.2,138.6 
		141.2,138.6 147.7,138.6 147.7,138.6 147.9,138.6 147.9,144.7 153.9,144.7 153.9,144.7 155.4,144.7 155.4,144.7 158.1,144.7 
		158.1,144.7 163.7,144.7 163.7,144.7 167.2,144.7 167.2,144.7 167.7,144.7 167.7,144.7 175.9,144.7 175.9,144.7 180.2,144.7 
		180.2,144.7 186.5,144.7 186.5,156.9 195.2,156.9 195.2,156.9 198.5,156.9 198.5,156.9 212,156.9 212,156.9 217.9,156.9 
		217.9,156.9 237.2,156.9 237.2,156.9 238.7,156.9 238.7,156.9 248.6,156.9 248.6,156.9 	"/>
	<polygon class="st7" points="57.1,78.8 57.1,78.8 57.1,78.8 57.4,78.8 57.4,78.8 58.3,78.8 58.3,78.8 58.4,78.8 58.4,78.8 
		58.4,78.8 58.4,78.8 58.5,78.8 58.5,78.8 59,78.8 59,78.8 59.1,78.8 59.1,78.8 59.2,78.8 59.2,78.9 59.7,78.9 59.7,80.6 61.3,80.6 
		61.3,81.6 62.3,81.6 62.3,82.6 63.6,82.6 63.6,83.7 63.8,83.7 63.8,84.8 64.9,84.8 64.9,84.8 65,84.8 65,84.8 66.2,84.8 66.2,84.8 
		66.2,84.8 66.2,85.9 67.4,85.9 67.4,87.1 68,87.1 68,88.3 68.8,88.3 68.8,88.3 69.5,88.3 69.5,89.6 70,89.6 70,90.8 70.2,90.8 
		70.2,92.1 70.2,92.1 70.2,92.1 71.3,92.1 71.3,94.8 71.4,94.8 71.4,96.1 71.5,96.1 71.5,96.1 72.7,96.1 72.7,96.1 72.8,96.1 
		72.8,97.5 72.9,97.5 72.9,97.5 73.2,97.5 73.2,97.5 73.7,97.5 73.7,97.5 73.9,97.5 73.9,97.5 74,97.5 74,99 74,99 74,99 75.2,99 
		75.2,100.5 75.2,100.5 75.2,102.1 75.3,102.1 75.3,103.6 76.4,103.6 76.4,103.6 76.5,103.6 76.5,103.6 76.6,103.6 76.6,103.6 
		77.9,103.6 77.9,103.6 78.2,103.6 78.2,105.3 78.6,105.3 78.6,107 79.2,107 79.2,107 80.2,107 80.2,107 80.5,107 80.5,108.7 
		81.8,108.7 81.8,108.7 81.8,108.7 81.8,108.7 82.1,108.7 82.1,108.7 82.6,108.7 82.6,108.7 83.8,108.7 83.8,108.7 84.3,108.7 
		84.3,108.7 85.3,108.7 85.3,108.7 85.6,108.7 85.6,108.7 85.7,108.7 85.7,108.7 86.1,108.7 86.1,110.8 86.9,110.8 86.9,110.8 
		87.5,110.8 87.5,112.9 88.2,112.9 88.2,112.9 88.4,112.9 88.4,112.9 89.7,112.9 89.7,112.9 90.8,112.9 90.8,112.9 90.8,112.9 
		90.8,112.9 94.6,112.9 94.6,112.9 96.1,112.9 96.1,112.9 98.1,112.9 98.1,112.9 98.6,112.9 98.6,112.9 98.6,112.9 98.6,112.9 
		99.4,112.9 99.4,112.9 99.9,112.9 99.9,112.9 99.9,112.9 99.9,112.9 101.2,112.9 101.2,112.9 101.2,112.9 101.2,112.9 103.7,112.9 
		103.7,115.5 103.7,115.5 103.7,115.5 103.8,115.5 103.8,115.5 105.1,115.5 105.1,115.5 106.3,115.5 106.3,115.5 107.6,115.5 
		107.6,115.5 108.1,115.5 108.1,115.5 108.2,115.5 108.2,115.5 108.8,115.5 108.8,115.5 110.1,115.5 110.1,115.5 110.2,115.5 
		110.2,115.5 112.8,115.5 112.8,115.5 113.1,115.5 113.1,115.5 124.4,115.5 124.4,115.5 127,115.5 127,115.5 129.7,115.5 
		129.7,115.5 137.1,115.5 137.1,112.4 153.6,112.4 153.6,112.4 162.4,112.4 162.4,113.8 167.2,113.8 167.2,113.8 184.2,113.8 
		184.2,113.8 186.5,113.8 186.5,78.8 229.4,78.8 229.4,78.8 229.4,234.3 229.4,234.3 186.5,234.3 186.5,200.4 184.2,200.4 
		184.2,200.4 167.2,200.4 167.2,200.4 162.4,200.4 162.4,177.4 153.6,177.4 153.6,177.4 137.1,177.4 137.1,151.7 129.7,151.7 
		129.7,151.7 127,151.7 127,151.7 124.4,151.7 124.4,151.7 113.1,151.7 113.1,151.7 112.8,151.7 112.8,151.7 110.2,151.7 
		110.2,151.7 110.1,151.7 110.1,151.7 108.8,151.7 108.8,151.7 108.2,151.7 108.2,151.7 108.1,151.7 108.1,151.7 107.6,151.7 
		107.6,151.7 106.3,151.7 106.3,151.7 105.1,151.7 105.1,151.7 103.8,151.7 103.8,151.7 103.7,151.7 103.7,151.7 103.7,151.7 
		103.7,145.2 101.2,145.2 101.2,145.2 101.2,145.2 101.2,145.2 99.9,145.2 99.9,145.2 99.9,145.2 99.9,145.2 99.4,145.2 99.4,145.2 
		98.6,145.2 98.6,145.2 98.6,145.2 98.6,145.2 98.1,145.2 98.1,145.2 96.1,145.2 96.1,145.2 94.6,145.2 94.6,145.2 90.8,145.2 
		90.8,145.2 90.8,145.2 90.8,145.2 89.7,145.2 89.7,145.2 88.4,145.2 88.4,145.2 88.2,145.2 88.2,145.2 87.5,145.2 87.5,141.9 
		86.9,141.9 86.9,141.9 86.1,141.9 86.1,138.7 85.7,138.7 85.7,138.7 85.6,138.7 85.6,138.7 85.3,138.7 85.3,138.7 84.3,138.7 
		84.3,138.7 83.8,138.7 83.8,138.7 82.6,138.7 82.6,138.7 82.1,138.7 82.1,138.7 81.8,138.7 81.8,138.7 81.8,138.7 81.8,138.7 
		80.5,138.7 80.5,136.2 80.2,136.2 80.2,136.2 79.2,136.2 79.2,136.2 78.6,136.2 78.6,133.9 78.2,133.9 78.2,131.5 77.9,131.5 
		77.9,131.5 76.6,131.5 76.6,131.5 76.5,131.5 76.5,131.5 76.4,131.5 76.4,131.5 75.3,131.5 75.3,129.3 75.2,129.3 75.2,127.2 
		75.2,127.2 75.2,125 74,125 74,125 74,125 74,122.8 73.9,122.8 73.9,122.8 73.7,122.8 73.7,122.8 73.2,122.8 73.2,122.8 
		72.9,122.8 72.9,122.8 72.8,122.8 72.8,120.8 72.7,120.8 72.7,120.8 71.5,120.8 71.5,120.8 71.4,120.8 71.4,118.9 71.3,118.9 
		71.3,114.9 70.2,114.9 70.2,114.9 70.2,114.9 70.2,112.9 70,112.9 70,111 69.5,111 69.5,109 68.8,109 68.8,109 68,109 68,107 
		67.4,107 67.4,105 66.2,105 66.2,102.9 66.2,102.9 66.2,102.9 65,102.9 65,102.9 64.9,102.9 64.9,102.9 63.8,102.9 63.8,100.9 
		63.6,100.9 63.6,98.9 62.3,98.9 62.3,96.8 61.3,96.8 61.3,94.7 59.7,94.7 59.7,90.3 59.2,90.3 59.2,88 59.1,88 59.1,88 59,88 
		59,85.5 58.5,85.5 58.5,85.5 58.4,85.5 58.4,85.5 58.4,85.5 58.4,82.8 58.3,82.8 58.3,82.8 57.4,82.8 57.4,82.8 57.1,82.8 
		57.1,78.8 	"/>
	<polyline class="st1" points="57.1,78.8 57.1,78.8 57.1,78.8 57.4,78.8 57.4,78.8 58.3,78.8 58.3,78.8 58.4,78.8 58.4,78.8 
		58.4,78.8 58.4,78.8 58.5,78.8 58.5,78.8 59,78.8 59,78.8 59.1,78.8 59.1,78.8 59.2,78.8 59.2,78.9 59.7,78.9 59.7,80.6 61.3,80.6 
		61.3,81.6 62.3,81.6 62.3,82.6 63.6,82.6 63.6,83.7 63.8,83.7 63.8,84.8 64.9,84.8 64.9,84.8 65,84.8 65,84.8 66.2,84.8 66.2,84.8 
		66.2,84.8 66.2,85.9 67.4,85.9 67.4,87.1 68,87.1 68,88.3 68.8,88.3 68.8,88.3 69.5,88.3 69.5,89.6 70,89.6 70,90.8 70.2,90.8 
		70.2,92.1 70.2,92.1 70.2,92.1 71.3,92.1 71.3,94.8 71.4,94.8 71.4,96.1 71.5,96.1 71.5,96.1 72.7,96.1 72.7,96.1 72.8,96.1 
		72.8,97.5 72.9,97.5 72.9,97.5 73.2,97.5 73.2,97.5 73.7,97.5 73.7,97.5 73.9,97.5 73.9,97.5 74,97.5 74,99 74,99 74,99 75.2,99 
		75.2,100.5 75.2,100.5 75.2,102.1 75.3,102.1 75.3,103.6 76.4,103.6 76.4,103.6 76.5,103.6 76.5,103.6 76.6,103.6 76.6,103.6 
		77.9,103.6 77.9,103.6 78.2,103.6 78.2,105.3 78.6,105.3 78.6,107 79.2,107 79.2,107 80.2,107 80.2,107 80.5,107 80.5,108.7 
		81.8,108.7 81.8,108.7 81.8,108.7 81.8,108.7 82.1,108.7 82.1,108.7 82.6,108.7 82.6,108.7 83.8,108.7 83.8,108.7 84.3,108.7 
		84.3,108.7 85.3,108.7 85.3,108.7 85.6,108.7 85.6,108.7 85.7,108.7 85.7,108.7 86.1,108.7 86.1,110.8 86.9,110.8 86.9,110.8 
		87.5,110.8 87.5,112.9 88.2,112.9 88.2,112.9 88.4,112.9 88.4,112.9 89.7,112.9 89.7,112.9 90.8,112.9 90.8,112.9 90.8,112.9 
		90.8,112.9 94.6,112.9 94.6,112.9 96.1,112.9 96.1,112.9 98.1,112.9 98.1,112.9 98.6,112.9 98.6,112.9 98.6,112.9 98.6,112.9 
		99.4,112.9 99.4,112.9 99.9,112.9 99.9,112.9 99.9,112.9 99.9,112.9 101.2,112.9 101.2,112.9 101.2,112.9 101.2,112.9 103.7,112.9 
		103.7,115.5 103.7,115.5 103.7,115.5 103.8,115.5 103.8,115.5 105.1,115.5 105.1,115.5 106.3,115.5 106.3,115.5 107.6,115.5 
		107.6,115.5 108.1,115.5 108.1,115.5 108.2,115.5 108.2,115.5 108.8,115.5 108.8,115.5 110.1,115.5 110.1,115.5 110.2,115.5 
		110.2,115.5 112.8,115.5 112.8,115.5 113.1,115.5 113.1,115.5 124.4,115.5 124.4,115.5 127,115.5 127,115.5 129.7,115.5 
		129.7,115.5 137.1,115.5 137.1,112.4 153.6,112.4 153.6,112.4 162.4,112.4 162.4,113.8 167.2,113.8 167.2,113.8 184.2,113.8 
		184.2,113.8 186.5,113.8 186.5,78.8 229.4,78.8 229.4,78.8 	"/>
	<polyline class="st1" points="229.4,234.3 229.4,234.3 186.5,234.3 186.5,200.4 184.2,200.4 184.2,200.4 167.2,200.4 167.2,200.4 
		162.4,200.4 162.4,177.4 153.6,177.4 153.6,177.4 137.1,177.4 137.1,151.7 129.7,151.7 129.7,151.7 127,151.7 127,151.7 
		124.4,151.7 124.4,151.7 113.1,151.7 113.1,151.7 112.8,151.7 112.8,151.7 110.2,151.7 110.2,151.7 110.1,151.7 110.1,151.7 
		108.8,151.7 108.8,151.7 108.2,151.7 108.2,151.7 108.1,151.7 108.1,151.7 107.6,151.7 107.6,151.7 106.3,151.7 106.3,151.7 
		105.1,151.7 105.1,151.7 103.8,151.7 103.8,151.7 103.7,151.7 103.7,151.7 103.7,151.7 103.7,145.2 101.2,145.2 101.2,145.2 
		101.2,145.2 101.2,145.2 99.9,145.2 99.9,145.2 99.9,145.2 99.9,145.2 99.4,145.2 99.4,145.2 98.6,145.2 98.6,145.2 98.6,145.2 
		98.6,145.2 98.1,145.2 98.1,145.2 96.1,145.2 96.1,145.2 94.6,145.2 94.6,145.2 90.8,145.2 90.8,145.2 90.8,145.2 90.8,145.2 
		89.7,145.2 89.7,145.2 88.4,145.2 88.4,145.2 88.2,145.2 88.2,145.2 87.5,145.2 87.5,141.9 86.9,141.9 86.9,141.9 86.1,141.9 
		86.1,138.7 85.7,138.7 85.7,138.7 85.6,138.7 85.6,138.7 85.3,138.7 85.3,138.7 84.3,138.7 84.3,138.7 83.8,138.7 83.8,138.7 
		82.6,138.7 82.6,138.7 82.1,138.7 82.1,138.7 81.8,138.7 81.8,138.7 81.8,138.7 81.8,138.7 80.5,138.7 80.5,136.2 80.2,136.2 
		80.2,136.2 79.2,136.2 79.2,136.2 78.6,136.2 78.6,133.9 78.2,133.9 78.2,131.5 77.9,131.5 77.9,131.5 76.6,131.5 76.6,131.5 
		76.5,131.5 76.5,131.5 76.4,131.5 76.4,131.5 75.3,131.5 75.3,129.3 75.2,129.3 75.2,127.2 75.2,127.2 75.2,125 74,125 74,125 
		74,125 74,122.8 73.9,122.8 73.9,122.8 73.7,122.8 73.7,122.8 73.2,122.8 73.2,122.8 72.9,122.8 72.9,122.8 72.8,122.8 72.8,120.8 
		72.7,120.8 72.7,120.8 71.5,120.8 71.5,120.8 71.4,120.8 71.4,118.9 71.3,118.9 71.3,114.9 70.2,114.9 70.2,114.9 70.2,114.9 
		70.2,112.9 70,112.9 70,111 69.5,111 69.5,109 68.8,109 68.8,109 68,109 68,107 67.4,107 67.4,105 66.2,105 66.2,102.9 66.2,102.9 
		66.2,102.9 65,102.9 65,102.9 64.9,102.9 64.9,102.9 63.8,102.9 63.8,100.9 63.6,100.9 63.6,98.9 62.3,98.9 62.3,96.8 61.3,96.8 
		61.3,94.7 59.7,94.7 59.7,90.3 59.2,90.3 59.2,88 59.1,88 59.1,88 59,88 59,85.5 58.5,85.5 58.5,85.5 58.4,85.5 58.4,85.5 
		58.4,85.5 58.4,82.8 58.3,82.8 58.3,82.8 57.4,82.8 57.4,82.8 57.1,82.8 57.1,78.8 57.1,78.8 	"/>
	<polygon class="st8" points="57.1,78.8 57.1,78.8 57.1,78.8 57.7,78.8 57.7,78.8 57.8,78.8 57.8,78.8 58.4,78.8 58.4,78.8 
		58.5,78.8 58.5,78.8 59.7,78.8 59.7,78.8 61,78.8 61,79.3 63.3,79.3 63.3,79.3 63.6,79.3 63.6,80.9 63.9,80.9 63.9,82.1 64.4,82.1 
		64.4,82.7 64.6,82.7 64.6,83.3 64.8,83.3 64.8,84 65.9,84 65.9,84.6 66.2,84.6 66.2,84.6 66.9,84.6 66.9,84.6 68.3,84.6 68.3,85.3 
		70.2,85.3 70.2,86 70.4,86 70.4,86 71.2,86 71.2,86.7 71.4,86.7 71.4,86.7 71.5,86.7 71.5,86.7 71.5,86.7 71.5,87.3 72.2,87.3 
		72.2,87.3 72.3,87.3 72.3,88.1 72.5,88.1 72.5,88.1 72.7,88.1 72.7,88.1 73.2,88.1 73.2,88.1 73.3,88.1 73.3,88.1 73.4,88.1 
		73.4,88.8 73.6,88.8 73.6,88.8 73.9,88.8 73.9,88.8 74,88.8 74,89.5 74,89.5 74,89.5 74.3,89.5 74.3,90.3 74.4,90.3 74.4,91 
		74.5,91 74.5,91 74.9,91 74.9,91 75.2,91 75.2,91.8 75.3,91.8 75.3,91.8 75.6,91.8 75.6,91.8 75.9,91.8 75.9,91.8 76.5,91.8 
		76.5,91.8 76.6,91.8 76.6,91.8 77.2,91.8 77.2,92.6 77.3,92.6 77.3,92.6 77.3,92.6 77.3,92.6 77.8,92.6 77.8,92.6 78,92.6 78,92.6 
		78.4,92.6 78.4,92.6 79.2,92.6 79.2,92.6 79.3,92.6 79.3,92.6 79.5,92.6 79.5,92.6 80.2,92.6 80.2,92.6 80.4,92.6 80.4,92.6 
		80.5,92.6 80.5,92.6 81.5,92.6 81.5,92.6 81.7,92.6 81.7,92.6 81.8,92.6 81.8,92.6 82.1,92.6 82.1,92.6 82.5,92.6 82.5,92.6 
		83.2,92.6 83.2,92.6 83.4,92.6 83.4,92.6 84.3,92.6 84.3,92.6 84.8,92.6 84.8,92.6 84.9,92.6 84.9,92.6 85.5,92.6 85.5,92.6 
		85.6,92.6 85.6,92.6 85.6,92.6 85.6,93.6 85.7,93.6 85.7,93.6 86.1,93.6 86.1,94.6 86.3,94.6 86.3,94.6 87.7,94.6 87.7,94.6 
		88.2,94.6 88.2,94.6 88.2,94.6 88.2,94.6 88.7,94.6 88.7,95.6 88.9,95.6 88.9,95.6 89.4,95.6 89.4,96.7 89.5,96.7 89.5,96.7 
		89.6,96.7 89.6,96.7 90.1,96.7 90.1,96.7 90.8,96.7 90.8,96.7 91,96.7 91,96.7 91.4,96.7 91.4,97.8 92.1,97.8 92.1,99 92.2,99 
		92.2,99 92.6,99 92.6,99 94.6,99 94.6,99 94.7,99 94.7,99 94.7,99 94.7,99 94.9,99 94.9,99 94.9,99 94.9,99 95.2,99 95.2,99 
		96.5,99 96.5,99 97.2,99 97.2,99 97.3,99 97.3,99 97.6,99 97.6,99 98.6,99 98.6,99 99.1,99 99.1,99 99.7,99 99.7,99 100.3,99 
		100.3,99 101.1,99 101.1,99 101.2,99 101.2,99 102,99 102,99 102.6,99 102.6,99 103.4,99 103.4,99 103.6,99 103.6,99 103.7,99 
		103.7,100.5 103.8,100.5 103.8,100.5 104.4,100.5 104.4,100.5 105,100.5 105,102 105.1,102 105.1,102 105.3,102 105.3,102 
		106.3,102 106.3,102 106.4,102 106.4,103.7 107.6,103.7 107.6,103.7 112.5,103.7 112.5,103.7 112.6,103.7 112.6,105.6 113.7,105.6 
		113.7,107.5 115.2,107.5 115.2,107.5 116.1,107.5 116.1,107.5 117.9,107.5 117.9,107.5 118,107.5 118,107.5 118.5,107.5 
		118.5,107.5 119.1,107.5 119.1,107.5 120.6,107.5 120.6,109.7 121.1,109.7 121.1,112.1 123.5,112.1 123.5,112.1 126.5,112.1 
		126.5,112.1 127.8,112.1 127.8,114.6 128.3,114.6 128.3,114.6 129.5,114.6 129.5,114.6 132.2,114.6 132.2,114.6 134.9,114.6 
		134.9,114.6 136.1,114.6 136.1,114.6 137.2,114.6 137.2,114.6 138.4,114.6 138.4,117.4 138.6,117.4 138.6,117.4 139.4,117.4 
		139.4,117.4 141.2,117.4 141.2,117.4 147.7,117.4 147.7,117.4 147.9,117.4 147.9,120.6 153.9,120.6 153.9,120.6 155.4,120.6 
		155.4,120.6 158.1,120.6 158.1,120.6 163.7,120.6 163.7,120.6 167.2,120.6 167.2,120.6 167.7,120.6 167.7,120.6 175.9,120.6 
		175.9,120.6 180.2,120.6 180.2,120.6 186.5,120.6 186.5,122 195.2,122 195.2,122 198.5,122 198.5,122 212,122 212,122 217.9,122 
		217.9,122 237.2,122 237.2,122 238.7,122 238.7,122 248.6,122 248.6,122 248.6,181.8 248.6,181.8 238.7,181.8 238.7,181.8 
		237.2,181.8 237.2,181.8 217.9,181.8 217.9,181.8 212,181.8 212,181.8 198.5,181.8 198.5,181.8 195.2,181.8 195.2,181.8 
		186.5,181.8 186.5,164 180.2,164 180.2,164 175.9,164 175.9,164 167.7,164 167.7,164 167.2,164 167.2,164 163.7,164 163.7,164 
		158.1,164 158.1,164 155.4,164 155.4,164 153.9,164 153.9,164 147.9,164 147.9,156.2 147.7,156.2 147.7,156.2 141.2,156.2 
		141.2,156.2 139.4,156.2 139.4,156.2 138.6,156.2 138.6,156.2 138.4,156.2 138.4,149.9 137.2,149.9 137.2,149.9 136.1,149.9 
		136.1,149.9 134.9,149.9 134.9,149.9 132.2,149.9 132.2,149.9 129.5,149.9 129.5,149.9 128.3,149.9 128.3,149.9 127.8,149.9 
		127.8,145.3 126.5,145.3 126.5,145.3 123.5,145.3 123.5,145.3 121.1,145.3 121.1,140.9 120.6,140.9 120.6,136.4 119.1,136.4 
		119.1,136.4 118.5,136.4 118.5,136.4 118,136.4 118,136.4 117.9,136.4 117.9,136.4 116.1,136.4 116.1,136.4 115.2,136.4 
		115.2,136.4 113.7,136.4 113.7,132.8 112.6,132.8 112.6,129 112.5,129 112.5,129 107.6,129 107.6,129 106.4,129 106.4,125.4 
		106.3,125.4 106.3,125.4 105.3,125.4 105.3,125.4 105.1,125.4 105.1,125.4 105,125.4 105,122.3 104.4,122.3 104.4,122.3 
		103.8,122.3 103.8,122.3 103.7,122.3 103.7,119.3 103.6,119.3 103.6,119.3 103.4,119.3 103.4,119.3 102.6,119.3 102.6,119.3 
		102,119.3 102,119.3 101.2,119.3 101.2,119.3 101.1,119.3 101.1,119.3 100.3,119.3 100.3,119.3 99.7,119.3 99.7,119.3 99.1,119.3 
		99.1,119.3 98.6,119.3 98.6,119.3 97.6,119.3 97.6,119.3 97.3,119.3 97.3,119.3 97.2,119.3 97.2,119.3 96.5,119.3 96.5,119.3 
		95.2,119.3 95.2,119.3 94.9,119.3 94.9,119.3 94.9,119.3 94.9,119.3 94.7,119.3 94.7,119.3 94.7,119.3 94.7,119.3 94.6,119.3 
		94.6,119.3 92.6,119.3 92.6,119.3 92.2,119.3 92.2,119.3 92.1,119.3 92.1,117.4 91.4,117.4 91.4,115.5 91,115.5 91,115.5 
		90.8,115.5 90.8,115.5 90.1,115.5 90.1,115.5 89.6,115.5 89.6,115.5 89.5,115.5 89.5,115.5 89.4,115.5 89.4,113.8 88.9,113.8 
		88.9,113.8 88.7,113.8 88.7,112 88.2,112 88.2,112 88.2,112 88.2,112 87.7,112 87.7,112 86.3,112 86.3,112 86.1,112 86.1,110.4 
		85.7,110.4 85.7,110.4 85.6,110.4 85.6,108.9 85.6,108.9 85.6,108.9 85.5,108.9 85.5,108.9 84.9,108.9 84.9,108.9 84.8,108.9 
		84.8,108.9 84.3,108.9 84.3,108.9 83.4,108.9 83.4,108.9 83.2,108.9 83.2,108.9 82.5,108.9 82.5,108.9 82.1,108.9 82.1,108.9 
		81.8,108.9 81.8,108.9 81.7,108.9 81.7,108.9 81.5,108.9 81.5,108.9 80.5,108.9 80.5,108.9 80.4,108.9 80.4,108.9 80.2,108.9 
		80.2,108.9 79.5,108.9 79.5,108.9 79.3,108.9 79.3,108.9 79.2,108.9 79.2,108.9 78.4,108.9 78.4,108.9 78,108.9 78,108.9 
		77.8,108.9 77.8,108.9 77.3,108.9 77.3,108.9 77.3,108.9 77.3,108.9 77.2,108.9 77.2,107.7 76.6,107.7 76.6,107.7 76.5,107.7 
		76.5,107.7 75.9,107.7 75.9,107.7 75.6,107.7 75.6,107.7 75.3,107.7 75.3,107.7 75.2,107.7 75.2,106.6 74.9,106.6 74.9,106.6 
		74.5,106.6 74.5,106.6 74.4,106.6 74.4,105.4 74.3,105.4 74.3,104.3 74,104.3 74,104.3 74,104.3 74,103.2 73.9,103.2 73.9,103.2 
		73.6,103.2 73.6,103.2 73.4,103.2 73.4,102.1 73.3,102.1 73.3,102.1 73.2,102.1 73.2,102.1 72.7,102.1 72.7,102.1 72.5,102.1 
		72.5,102.1 72.3,102.1 72.3,101.1 72.2,101.1 72.2,101.1 71.5,101.1 71.5,100 71.5,100 71.5,100 71.4,100 71.4,100 71.2,100 
		71.2,98.9 70.4,98.9 70.4,98.9 70.2,98.9 70.2,97.9 68.3,97.9 68.3,96.8 66.9,96.8 66.9,96.8 66.2,96.8 66.2,96.8 65.9,96.8 
		65.9,95.7 64.8,95.7 64.8,94.6 64.6,94.6 64.6,93.6 64.4,93.6 64.4,92.4 63.9,92.4 63.9,90.2 63.6,90.2 63.6,86.7 63.3,86.7 
		63.3,86.7 61,86.7 61,85.4 59.7,85.4 59.7,82.7 58.5,82.7 58.5,82.7 58.4,82.7 58.4,81.2 57.8,81.2 57.8,81.2 57.7,81.2 57.7,81.2 
		57.1,81.2 57.1,78.8 	"/>
	<polyline class="st1" points="57.1,78.8 57.1,78.8 57.1,78.8 57.7,78.8 57.7,78.8 57.8,78.8 57.8,78.8 58.4,78.8 58.4,78.8 
		58.5,78.8 58.5,78.8 59.7,78.8 59.7,78.8 61,78.8 61,79.3 63.3,79.3 63.3,79.3 63.6,79.3 63.6,80.9 63.9,80.9 63.9,82.1 64.4,82.1 
		64.4,82.7 64.6,82.7 64.6,83.3 64.8,83.3 64.8,84 65.9,84 65.9,84.6 66.2,84.6 66.2,84.6 66.9,84.6 66.9,84.6 68.3,84.6 68.3,85.3 
		70.2,85.3 70.2,86 70.4,86 70.4,86 71.2,86 71.2,86.7 71.4,86.7 71.4,86.7 71.5,86.7 71.5,86.7 71.5,86.7 71.5,87.3 72.2,87.3 
		72.2,87.3 72.3,87.3 72.3,88.1 72.5,88.1 72.5,88.1 72.7,88.1 72.7,88.1 73.2,88.1 73.2,88.1 73.3,88.1 73.3,88.1 73.4,88.1 
		73.4,88.8 73.6,88.8 73.6,88.8 73.9,88.8 73.9,88.8 74,88.8 74,89.5 74,89.5 74,89.5 74.3,89.5 74.3,90.3 74.4,90.3 74.4,91 
		74.5,91 74.5,91 74.9,91 74.9,91 75.2,91 75.2,91.8 75.3,91.8 75.3,91.8 75.6,91.8 75.6,91.8 75.9,91.8 75.9,91.8 76.5,91.8 
		76.5,91.8 76.6,91.8 76.6,91.8 77.2,91.8 77.2,92.6 77.3,92.6 77.3,92.6 77.3,92.6 77.3,92.6 77.8,92.6 77.8,92.6 78,92.6 78,92.6 
		78.4,92.6 78.4,92.6 79.2,92.6 79.2,92.6 79.3,92.6 79.3,92.6 79.5,92.6 79.5,92.6 80.2,92.6 80.2,92.6 80.4,92.6 80.4,92.6 
		80.5,92.6 80.5,92.6 81.5,92.6 81.5,92.6 81.7,92.6 81.7,92.6 81.8,92.6 81.8,92.6 82.1,92.6 82.1,92.6 82.5,92.6 82.5,92.6 
		83.2,92.6 83.2,92.6 83.4,92.6 83.4,92.6 84.3,92.6 84.3,92.6 84.8,92.6 84.8,92.6 84.9,92.6 84.9,92.6 85.5,92.6 85.5,92.6 
		85.6,92.6 85.6,92.6 85.6,92.6 85.6,93.6 85.7,93.6 85.7,93.6 86.1,93.6 86.1,94.6 86.3,94.6 86.3,94.6 87.7,94.6 87.7,94.6 
		88.2,94.6 88.2,94.6 88.2,94.6 88.2,94.6 88.7,94.6 88.7,95.6 88.9,95.6 88.9,95.6 89.4,95.6 89.4,96.7 89.5,96.7 89.5,96.7 
		89.6,96.7 89.6,96.7 90.1,96.7 90.1,96.7 90.8,96.7 90.8,96.7 91,96.7 91,96.7 91.4,96.7 91.4,97.8 92.1,97.8 92.1,99 92.2,99 
		92.2,99 92.6,99 92.6,99 94.6,99 94.6,99 94.7,99 94.7,99 94.7,99 94.7,99 94.9,99 94.9,99 94.9,99 94.9,99 95.2,99 95.2,99 
		96.5,99 96.5,99 97.2,99 97.2,99 97.3,99 97.3,99 97.6,99 97.6,99 98.6,99 98.6,99 99.1,99 99.1,99 99.7,99 99.7,99 100.3,99 
		100.3,99 101.1,99 101.1,99 101.2,99 101.2,99 102,99 102,99 102.6,99 102.6,99 103.4,99 103.4,99 103.6,99 103.6,99 103.7,99 
		103.7,100.5 103.8,100.5 103.8,100.5 104.4,100.5 104.4,100.5 105,100.5 105,102 105.1,102 105.1,102 105.3,102 105.3,102 
		106.3,102 106.3,102 106.4,102 106.4,103.7 107.6,103.7 107.6,103.7 112.5,103.7 112.5,103.7 112.6,103.7 112.6,105.6 113.7,105.6 
		113.7,107.5 115.2,107.5 115.2,107.5 116.1,107.5 116.1,107.5 117.9,107.5 117.9,107.5 118,107.5 118,107.5 118.5,107.5 
		118.5,107.5 119.1,107.5 119.1,107.5 120.6,107.5 120.6,109.7 121.1,109.7 121.1,112.1 123.5,112.1 123.5,112.1 126.5,112.1 
		126.5,112.1 127.8,112.1 127.8,114.6 128.3,114.6 128.3,114.6 129.5,114.6 129.5,114.6 132.2,114.6 132.2,114.6 134.9,114.6 
		134.9,114.6 136.1,114.6 136.1,114.6 137.2,114.6 137.2,114.6 138.4,114.6 138.4,117.4 138.6,117.4 138.6,117.4 139.4,117.4 
		139.4,117.4 141.2,117.4 141.2,117.4 147.7,117.4 147.7,117.4 147.9,117.4 147.9,120.6 153.9,120.6 153.9,120.6 155.4,120.6 
		155.4,120.6 158.1,120.6 158.1,120.6 163.7,120.6 163.7,120.6 167.2,120.6 167.2,120.6 167.7,120.6 167.7,120.6 175.9,120.6 
		175.9,120.6 180.2,120.6 180.2,120.6 186.5,120.6 186.5,122 195.2,122 195.2,122 198.5,122 198.5,122 212,122 212,122 217.9,122 
		217.9,122 237.2,122 237.2,122 238.7,122 238.7,122 248.6,122 248.6,122 	"/>
	<polyline class="st1" points="248.6,181.8 248.6,181.8 238.7,181.8 238.7,181.8 237.2,181.8 237.2,181.8 217.9,181.8 217.9,181.8 
		212,181.8 212,181.8 198.5,181.8 198.5,181.8 195.2,181.8 195.2,181.8 186.5,181.8 186.5,164 180.2,164 180.2,164 175.9,164 
		175.9,164 167.7,164 167.7,164 167.2,164 167.2,164 163.7,164 163.7,164 158.1,164 158.1,164 155.4,164 155.4,164 153.9,164 
		153.9,164 147.9,164 147.9,156.2 147.7,156.2 147.7,156.2 141.2,156.2 141.2,156.2 139.4,156.2 139.4,156.2 138.6,156.2 
		138.6,156.2 138.4,156.2 138.4,149.9 137.2,149.9 137.2,149.9 136.1,149.9 136.1,149.9 134.9,149.9 134.9,149.9 132.2,149.9 
		132.2,149.9 129.5,149.9 129.5,149.9 128.3,149.9 128.3,149.9 127.8,149.9 127.8,145.3 126.5,145.3 126.5,145.3 123.5,145.3 
		123.5,145.3 121.1,145.3 121.1,140.9 120.6,140.9 120.6,136.4 119.1,136.4 119.1,136.4 118.5,136.4 118.5,136.4 118,136.4 
		118,136.4 117.9,136.4 117.9,136.4 116.1,136.4 116.1,136.4 115.2,136.4 115.2,136.4 113.7,136.4 113.7,132.8 112.6,132.8 
		112.6,129 112.5,129 112.5,129 107.6,129 107.6,129 106.4,129 106.4,125.4 106.3,125.4 106.3,125.4 105.3,125.4 105.3,125.4 
		105.1,125.4 105.1,125.4 105,125.4 105,122.3 104.4,122.3 104.4,122.3 103.8,122.3 103.8,122.3 103.7,122.3 103.7,119.3 
		103.6,119.3 103.6,119.3 103.4,119.3 103.4,119.3 102.6,119.3 102.6,119.3 102,119.3 102,119.3 101.2,119.3 101.2,119.3 
		101.1,119.3 101.1,119.3 100.3,119.3 100.3,119.3 99.7,119.3 99.7,119.3 99.1,119.3 99.1,119.3 98.6,119.3 98.6,119.3 97.6,119.3 
		97.6,119.3 97.3,119.3 97.3,119.3 97.2,119.3 97.2,119.3 96.5,119.3 96.5,119.3 95.2,119.3 95.2,119.3 94.9,119.3 94.9,119.3 
		94.9,119.3 94.9,119.3 94.7,119.3 94.7,119.3 94.7,119.3 94.7,119.3 94.6,119.3 94.6,119.3 92.6,119.3 92.6,119.3 92.2,119.3 
		92.2,119.3 92.1,119.3 92.1,117.4 91.4,117.4 91.4,115.5 91,115.5 91,115.5 90.8,115.5 90.8,115.5 90.1,115.5 90.1,115.5 
		89.6,115.5 89.6,115.5 89.5,115.5 89.5,115.5 89.4,115.5 89.4,113.8 88.9,113.8 88.9,113.8 88.7,113.8 88.7,112 88.2,112 88.2,112 
		88.2,112 88.2,112 87.7,112 87.7,112 86.3,112 86.3,112 86.1,112 86.1,110.4 85.7,110.4 85.7,110.4 85.6,110.4 85.6,108.9 
		85.6,108.9 85.6,108.9 85.5,108.9 85.5,108.9 84.9,108.9 84.9,108.9 84.8,108.9 84.8,108.9 84.3,108.9 84.3,108.9 83.4,108.9 
		83.4,108.9 83.2,108.9 83.2,108.9 82.5,108.9 82.5,108.9 82.1,108.9 82.1,108.9 81.8,108.9 81.8,108.9 81.7,108.9 81.7,108.9 
		81.5,108.9 81.5,108.9 80.5,108.9 80.5,108.9 80.4,108.9 80.4,108.9 80.2,108.9 80.2,108.9 79.5,108.9 79.5,108.9 79.3,108.9 
		79.3,108.9 79.2,108.9 79.2,108.9 78.4,108.9 78.4,108.9 78,108.9 78,108.9 77.8,108.9 77.8,108.9 77.3,108.9 77.3,108.9 
		77.3,108.9 77.3,108.9 77.2,108.9 77.2,107.7 76.6,107.7 76.6,107.7 76.5,107.7 76.5,107.7 75.9,107.7 75.9,107.7 75.6,107.7 
		75.6,107.7 75.3,107.7 75.3,107.7 75.2,107.7 75.2,106.6 74.9,106.6 74.9,106.6 74.5,106.6 74.5,106.6 74.4,106.6 74.4,105.4 
		74.3,105.4 74.3,104.3 74,104.3 74,104.3 74,104.3 74,103.2 73.9,103.2 73.9,103.2 73.6,103.2 73.6,103.2 73.4,103.2 73.4,102.1 
		73.3,102.1 73.3,102.1 73.2,102.1 73.2,102.1 72.7,102.1 72.7,102.1 72.5,102.1 72.5,102.1 72.3,102.1 72.3,101.1 72.2,101.1 
		72.2,101.1 71.5,101.1 71.5,100 71.5,100 71.5,100 71.4,100 71.4,100 71.2,100 71.2,98.9 70.4,98.9 70.4,98.9 70.2,98.9 70.2,97.9 
		68.3,97.9 68.3,96.8 66.9,96.8 66.9,96.8 66.2,96.8 66.2,96.8 65.9,96.8 65.9,95.7 64.8,95.7 64.8,94.6 64.6,94.6 64.6,93.6 
		64.4,93.6 64.4,92.4 63.9,92.4 63.9,90.2 63.6,90.2 63.6,86.7 63.3,86.7 63.3,86.7 61,86.7 61,85.4 59.7,85.4 59.7,82.7 58.5,82.7 
		58.5,82.7 58.4,82.7 58.4,81.2 57.8,81.2 57.8,81.2 57.7,81.2 57.7,81.2 57.1,81.2 57.1,78.8 57.1,78.8 	"/>
	<text transform="matrix(1 0 0 1 53.1151 85.01)" class="st9 st10 st11">+</text>
	<text transform="matrix(1 0 0 1 53.3751 85.01)" class="st9 st10 st11">+</text>
	<text transform="matrix(1 0 0 1 54.3051 85.01)" class="st9 st10 st11">+</text>
	<text transform="matrix(1 0 0 1 54.3951 86.47)" class="st9 st10 st11">+</text>
	<text transform="matrix(1 0 0 1 54.4351 86.47)" class="st9 st10 st11">+</text>
	<text transform="matrix(1 0 0 1 55.1151 88)" class="st9 st10 st11">+</text>
	<text transform="matrix(1 0 0 1 55.7151 92.65)" class="st9 st10 st11">+</text>
	<text transform="matrix(1 0 0 1 60.8551 98.96)" class="st9 st10 st11">+</text>
	<text transform="matrix(1 0 0 1 60.9451 98.96)" class="st9 st10 st11">+</text>
	<text transform="matrix(1 0 0 1 62.1351 98.96)" class="st9 st10 st11">+</text>
	<text transform="matrix(1 0 0 1 64.8151 103.86)" class="st9 st10 st11">+</text>
	<text transform="matrix(1 0 0 1 66.1351 108.8101)" class="st9 st10 st11">+</text>
	<text transform="matrix(1 0 0 1 66.2151 108.8101)" class="st9 st10 st11">+</text>
	<text transform="matrix(1 0 0 1 67.4551 113.88)" class="st9 st10 st11">+</text>
	<text transform="matrix(1 0 0 1 68.6451 113.88)" class="st9 st10 st11">+</text>
	<text transform="matrix(1 0 0 1 68.8951 115.64)" class="st9 st10 st11">+</text>
	<text transform="matrix(1 0 0 1 69.1951 115.64)" class="st9 st10 st11">+</text>
	<text transform="matrix(1 0 0 1 69.6651 115.64)" class="st9 st10 st11">+</text>
	<text transform="matrix(1 0 0 1 69.9151 115.64)" class="st9 st10 st11">+</text>
	<text transform="matrix(1 0 0 1 70.0051 117.5)" class="st9 st10 st11">+</text>
	<text transform="matrix(1 0 0 1 71.2351 121.26)" class="st9 st10 st11">+</text>
	<text transform="matrix(1 0 0 1 72.4251 123.17)" class="st9 st10 st11">+</text>
	<text transform="matrix(1 0 0 1 72.5151 123.17)" class="st9 st10 st11">+</text>
	<text transform="matrix(1 0 0 1 72.5551 123.17)" class="st9 st10 st11">+</text>
	<text transform="matrix(1 0 0 1 73.9151 123.17)" class="st9 st10 st11">+</text>
	<text transform="matrix(1 0 0 1 75.1451 127.3199)" class="st9 st10 st11">+</text>
	<text transform="matrix(1 0 0 1 76.2151 127.3199)" class="st9 st10 st11">+</text>
	<text transform="matrix(1 0 0 1 76.4651 129.5)" class="st9 st10 st11">+</text>
	<text transform="matrix(1 0 0 1 77.7451 129.5)" class="st9 st10 st11">+</text>
	<text transform="matrix(1 0 0 1 77.7852 129.5)" class="st9 st10 st11">+</text>
	<text transform="matrix(1 0 0 1 78.1251 129.5)" class="st9 st10 st11">+</text>
	<text transform="matrix(1 0 0 1 78.5551 129.5)" class="st9 st10 st11">+</text>
	<text transform="matrix(1 0 0 1 79.7852 129.5)" class="st9 st10 st11">+</text>
	<text transform="matrix(1 0 0 1 80.2952 129.5)" class="st9 st10 st11">+</text>
	<text transform="matrix(1 0 0 1 81.2751 129.5)" class="st9 st10 st11">+</text>
	<text transform="matrix(1 0 0 1 81.5751 129.5)" class="st9 st10 st11">+</text>
	<text transform="matrix(1 0 0 1 81.6951 129.5)" class="st9 st10 st11">+</text>
	<text transform="matrix(1 0 0 1 82.8451 132.24)" class="st9 st10 st11">+</text>
	<text transform="matrix(1 0 0 1 84.2051 135.05)" class="st9 st10 st11">+</text>
	<text transform="matrix(1 0 0 1 84.3751 135.05)" class="st9 st10 st11">+</text>
	<text transform="matrix(1 0 0 1 85.6951 135.05)" class="st9 st10 st11">+</text>
	<text transform="matrix(1 0 0 1 86.7551 135.05)" class="st9 st10 st11">+</text>
	<text transform="matrix(1 0 0 1 86.8051 135.05)" class="st9 st10 st11">+</text>
	<text transform="matrix(1 0 0 1 90.6251 135.05)" class="st9 st10 st11">+</text>
	<text transform="matrix(1 0 0 1 92.0352 135.05)" class="st9 st10 st11">+</text>
	<text transform="matrix(1 0 0 1 94.0352 135.05)" class="st9 st10 st11">+</text>
	<text transform="matrix(1 0 0 1 94.5452 135.05)" class="st9 st10 st11">+</text>
	<text transform="matrix(1 0 0 1 94.5851 135.05)" class="st9 st10 st11">+</text>
	<text transform="matrix(1 0 0 1 95.4351 135.05)" class="st9 st10 st11">+</text>
	<text transform="matrix(1 0 0 1 95.8551 135.05)" class="st9 st10 st11">+</text>
	<text transform="matrix(1 0 0 1 95.9052 135.05)" class="st9 st10 st11">+</text>
	<text transform="matrix(1 0 0 1 97.1351 135.05)" class="st9 st10 st11">+</text>
	<text transform="matrix(1 0 0 1 97.175 135.05)" class="st9 st10 st11">+</text>
	<text transform="matrix(1 0 0 1 99.6851 139.9399)" class="st9 st10 st11">+</text>
	<text transform="matrix(1 0 0 1 99.7351 139.9399)" class="st9 st10 st11">+</text>
	<text transform="matrix(1 0 0 1 101.0452 139.9399)" class="st9 st10 st11">+</text>
	<text transform="matrix(1 0 0 1 102.3251 139.9399)" class="st9 st10 st11">+</text>
	<text transform="matrix(1 0 0 1 103.5551 139.9399)" class="st9 st10 st11">+</text>
	<text transform="matrix(1 0 0 1 104.1151 139.9399)" class="st9 st10 st11">+</text>
	<text transform="matrix(1 0 0 1 104.1552 139.9399)" class="st9 st10 st11">+</text>
	<text transform="matrix(1 0 0 1 104.8351 139.9399)" class="st9 st10 st11">+</text>
	<text transform="matrix(1 0 0 1 106.1051 139.9399)" class="st9 st10 st11">+</text>
	<text transform="matrix(1 0 0 1 106.1552 139.9399)" class="st9 st10 st11">+</text>
	<text transform="matrix(1 0 0 1 108.7852 139.9399)" class="st9 st10 st11">+</text>
	<text transform="matrix(1 0 0 1 109.0851 139.9399)" class="st9 st10 st11">+</text>
	<text transform="matrix(1 0 0 1 120.3551 139.9399)" class="st9 st10 st11">+</text>
	<text transform="matrix(1 0 0 1 122.9951 139.9399)" class="st9 st10 st11">+</text>
	<text transform="matrix(1 0 0 1 125.675 139.9399)" class="st9 st10 st11">+</text>
	<text transform="matrix(1 0 0 1 149.5751 155.3)" class="st9 st10 st11">+</text>
	<text transform="matrix(1 0 0 1 163.1451 173.72)" class="st9 st10 st11">+</text>
	<text transform="matrix(1 0 0 1 180.1951 173.72)" class="st9 st10 st11">+</text>
	<text transform="matrix(1 0 0 1 225.4052 210.58)" class="st9 st10 st11">+</text>
	<text transform="matrix(1 0 0 1 53.1151 84.4301)" class="st12 st10 st11">+</text>
	<text transform="matrix(1 0 0 1 53.7151 84.4301)" class="st12 st10 st11">+</text>
	<text transform="matrix(1 0 0 1 53.7951 84.4301)" class="st12 st10 st11">+</text>
	<text transform="matrix(1 0 0 1 54.3951 85.28)" class="st12 st10 st11">+</text>
	<text transform="matrix(1 0 0 1 54.4351 85.28)" class="st12 st10 st11">+</text>
	<text transform="matrix(1 0 0 1 59.3251 87.86)" class="st12 st10 st11">+</text>
	<text transform="matrix(1 0 0 1 62.1351 95.67)" class="st12 st10 st11">+</text>
	<text transform="matrix(1 0 0 1 62.8551 95.67)" class="st12 st10 st11">+</text>
	<text transform="matrix(1 0 0 1 66.3851 97.42)" class="st12 st10 st11">+</text>
	<text transform="matrix(1 0 0 1 67.3651 98.3101)" class="st12 st10 st11">+</text>
	<text transform="matrix(1 0 0 1 67.4551 98.3101)" class="st12 st10 st11">+</text>
	<text transform="matrix(1 0 0 1 68.1751 99.2)" class="st12 st10 st11">+</text>
	<text transform="matrix(1 0 0 1 68.5151 100.1)" class="st12 st10 st11">+</text>
	<text transform="matrix(1 0 0 1 68.6451 100.1)" class="st12 st10 st11">+</text>
	<text transform="matrix(1 0 0 1 69.2351 100.1)" class="st12 st10 st11">+</text>
	<text transform="matrix(1 0 0 1 69.2751 100.1)" class="st12 st10 st11">+</text>
	<text transform="matrix(1 0 0 1 69.5351 101.02)" class="st12 st10 st11">+</text>
	<text transform="matrix(1 0 0 1 69.9151 101.02)" class="st12 st10 st11">+</text>
	<text transform="matrix(1 0 0 1 69.9551 101.95)" class="st12 st10 st11">+</text>
	<text transform="matrix(1 0 0 1 70.0051 101.95)" class="st12 st10 st11">+</text>
	<text transform="matrix(1 0 0 1 70.4751 103.84)" class="st12 st10 st11">+</text>
	<text transform="matrix(1 0 0 1 70.9351 103.84)" class="st12 st10 st11">+</text>
	<text transform="matrix(1 0 0 1 71.1551 104.8)" class="st12 st10 st11">+</text>
	<text transform="matrix(1 0 0 1 71.2751 104.8)" class="st12 st10 st11">+</text>
	<text transform="matrix(1 0 0 1 71.6151 104.8)" class="st12 st10 st11">+</text>
	<text transform="matrix(1 0 0 1 71.8751 104.8)" class="st12 st10 st11">+</text>
	<text transform="matrix(1 0 0 1 72.5151 104.8)" class="st12 st10 st11">+</text>
	<text transform="matrix(1 0 0 1 72.5551 104.8)" class="st12 st10 st11">+</text>
	<text transform="matrix(1 0 0 1 73.2751 105.8199)" class="st12 st10 st11">+</text>
	<text transform="matrix(1 0 0 1 73.3151 105.8199)" class="st12 st10 st11">+</text>
	<text transform="matrix(1 0 0 1 73.7451 105.8199)" class="st12 st10 st11">+</text>
	<text transform="matrix(1 0 0 1 73.9951 105.8199)" class="st12 st10 st11">+</text>
	<text transform="matrix(1 0 0 1 74.3851 105.8199)" class="st12 st10 st11">+</text>
	<text transform="matrix(1 0 0 1 75.1451 105.8199)" class="st12 st10 st11">+</text>
	<text transform="matrix(1 0 0 1 75.2751 105.8199)" class="st12 st10 st11">+</text>
	<text transform="matrix(1 0 0 1 75.4451 105.8199)" class="st12 st10 st11">+</text>
	<text transform="matrix(1 0 0 1 76.2151 105.8199)" class="st12 st10 st11">+</text>
	<text transform="matrix(1 0 0 1 76.3851 105.8199)" class="st12 st10 st11">+</text>
	<text transform="matrix(1 0 0 1 76.4651 105.8199)" class="st12 st10 st11">+</text>
	<text transform="matrix(1 0 0 1 77.4851 105.8199)" class="st12 st10 st11">+</text>
	<text transform="matrix(1 0 0 1 77.6951 105.8199)" class="st12 st10 st11">+</text>
	<text transform="matrix(1 0 0 1 77.7451 105.8199)" class="st12 st10 st11">+</text>
	<text transform="matrix(1 0 0 1 78.1251 105.8199)" class="st12 st10 st11">+</text>
	<text transform="matrix(1 0 0 1 78.4651 105.8199)" class="st12 st10 st11">+</text>
	<text transform="matrix(1 0 0 1 79.2351 105.8199)" class="st12 st10 st11">+</text>
	<text transform="matrix(1 0 0 1 79.3551 105.8199)" class="st12 st10 st11">+</text>
	<text transform="matrix(1 0 0 1 80.2551 105.8199)" class="st12 st10 st11">+</text>
	<text transform="matrix(1 0 0 1 80.7651 105.8199)" class="st12 st10 st11">+</text>
	<text transform="matrix(1 0 0 1 80.8451 105.8199)" class="st12 st10 st11">+</text>
	<text transform="matrix(1 0 0 1 81.4451 105.8199)" class="st12 st10 st11">+</text>
	<text transform="matrix(1 0 0 1 81.5751 105.8199)" class="st12 st10 st11">+</text>
	<text transform="matrix(1 0 0 1 81.6151 107.1)" class="st12 st10 st11">+</text>
	<text transform="matrix(1 0 0 1 81.6552 107.1)" class="st12 st10 st11">+</text>
	<text transform="matrix(1 0 0 1 82.2551 108.42)" class="st12 st10 st11">+</text>
	<text transform="matrix(1 0 0 1 83.6552 108.42)" class="st12 st10 st11">+</text>
	<text transform="matrix(1 0 0 1 84.1652 108.42)" class="st12 st10 st11">+</text>
	<text transform="matrix(1 0 0 1 84.2051 108.42)" class="st12 st10 st11">+</text>
	<text transform="matrix(1 0 0 1 84.8451 109.84)" class="st12 st10 st11">+</text>
	<text transform="matrix(1 0 0 1 85.4851 111.27)" class="st12 st10 st11">+</text>
	<text transform="matrix(1 0 0 1 85.5651 111.27)" class="st12 st10 st11">+</text>
	<text transform="matrix(1 0 0 1 86.0751 111.27)" class="st12 st10 st11">+</text>
	<text transform="matrix(1 0 0 1 86.7551 111.27)" class="st12 st10 st11">+</text>
	<text transform="matrix(1 0 0 1 86.9751 111.27)" class="st12 st10 st11">+</text>
	<text transform="matrix(1 0 0 1 87.3551 112.8199)" class="st12 st10 st11">+</text>
	<text transform="matrix(1 0 0 1 88.0751 114.38)" class="st12 st10 st11">+</text>
	<text transform="matrix(1 0 0 1 88.1652 114.38)" class="st12 st10 st11">+</text>
	<text transform="matrix(1 0 0 1 88.5851 114.38)" class="st12 st10 st11">+</text>
	<text transform="matrix(1 0 0 1 90.6251 114.38)" class="st12 st10 st11">+</text>
	<text transform="matrix(1 0 0 1 90.675 114.38)" class="st12 st10 st11">+</text>
	<text transform="matrix(1 0 0 1 90.7151 114.38)" class="st12 st10 st11">+</text>
	<text transform="matrix(1 0 0 1 90.8451 114.38)" class="st12 st10 st11">+</text>
	<text transform="matrix(1 0 0 1 90.8851 114.38)" class="st12 st10 st11">+</text>
	<text transform="matrix(1 0 0 1 91.2251 114.38)" class="st12 st10 st11">+</text>
	<text transform="matrix(1 0 0 1 92.5051 114.38)" class="st12 st10 st11">+</text>
	<text transform="matrix(1 0 0 1 93.2251 114.38)" class="st12 st10 st11">+</text>
	<text transform="matrix(1 0 0 1 93.3051 114.38)" class="st12 st10 st11">+</text>
	<text transform="matrix(1 0 0 1 93.6051 114.38)" class="st12 st10 st11">+</text>
	<text transform="matrix(1 0 0 1 94.5452 114.38)" class="st12 st10 st11">+</text>
	<text transform="matrix(1 0 0 1 95.0951 114.38)" class="st12 st10 st11">+</text>
	<text transform="matrix(1 0 0 1 95.6851 114.38)" class="st12 st10 st11">+</text>
	<text transform="matrix(1 0 0 1 96.2451 114.38)" class="st12 st10 st11">+</text>
	<text transform="matrix(1 0 0 1 97.0951 114.38)" class="st12 st10 st11">+</text>
	<text transform="matrix(1 0 0 1 97.1351 114.38)" class="st12 st10 st11">+</text>
	<text transform="matrix(1 0 0 1 97.9451 114.38)" class="st12 st10 st11">+</text>
	<text transform="matrix(1 0 0 1 98.5352 114.38)" class="st12 st10 st11">+</text>
	<text transform="matrix(1 0 0 1 99.3451 114.38)" class="st12 st10 st11">+</text>
	<text transform="matrix(1 0 0 1 99.6051 114.38)" class="st12 st10 st11">+</text>
	<text transform="matrix(1 0 0 1 99.7351 116.6801)" class="st12 st10 st11">+</text>
	<text transform="matrix(1 0 0 1 100.3651 116.6801)" class="st12 st10 st11">+</text>
	<text transform="matrix(1 0 0 1 101.0051 119.05)" class="st12 st10 st11">+</text>
	<text transform="matrix(1 0 0 1 101.0452 119.05)" class="st12 st10 st11">+</text>
	<text transform="matrix(1 0 0 1 101.3051 119.05)" class="st12 st10 st11">+</text>
	<text transform="matrix(1 0 0 1 102.3251 119.05)" class="st12 st10 st11">+</text>
	<text transform="matrix(1 0 0 1 103.5551 121.84)" class="st12 st10 st11">+</text>
	<text transform="matrix(1 0 0 1 108.4451 121.84)" class="st12 st10 st11">+</text>
	<text transform="matrix(1 0 0 1 109.7251 127.6899)" class="st12 st10 st11">+</text>
	<text transform="matrix(1 0 0 1 111.2151 127.6899)" class="st12 st10 st11">+</text>
	<text transform="matrix(1 0 0 1 112.1051 127.6899)" class="st12 st10 st11">+</text>
	<text transform="matrix(1 0 0 1 113.9351 127.6899)" class="st12 st10 st11">+</text>
	<text transform="matrix(1 0 0 1 113.9751 127.6899)" class="st12 st10 st11">+</text>
	<text transform="matrix(1 0 0 1 114.4451 127.6899)" class="st12 st10 st11">+</text>
	<text transform="matrix(1 0 0 1 115.0452 127.6899)" class="st12 st10 st11">+</text>
	<text transform="matrix(1 0 0 1 119.5051 134.73)" class="st12 st10 st11">+</text>
	<text transform="matrix(1 0 0 1 122.4851 134.73)" class="st12 st10 st11">+</text>
	<text transform="matrix(1 0 0 1 124.3151 138.49)" class="st12 st10 st11">+</text>
	<text transform="matrix(1 0 0 1 125.4651 138.49)" class="st12 st10 st11">+</text>
	<text transform="matrix(1 0 0 1 128.1851 138.49)" class="st12 st10 st11">+</text>
	<text transform="matrix(1 0 0 1 130.9052 138.49)" class="st12 st10 st11">+</text>
	<text transform="matrix(1 0 0 1 132.0552 138.49)" class="st12 st10 st11">+</text>
	<text transform="matrix(1 0 0 1 133.2051 138.49)" class="st12 st10 st11">+</text>
	<text transform="matrix(1 0 0 1 134.5651 143.4399)" class="st12 st10 st11">+</text>
	<text transform="matrix(1 0 0 1 135.415 143.4399)" class="st12 st10 st11">+</text>
	<text transform="matrix(1 0 0 1 137.1951 143.4399)" class="st12 st10 st11">+</text>
	<text transform="matrix(1 0 0 1 143.7051 143.4399)" class="st12 st10 st11">+</text>
	<text transform="matrix(1 0 0 1 149.8751 149.5601)" class="st12 st10 st11">+</text>
	<text transform="matrix(1 0 0 1 151.3651 149.5601)" class="st12 st10 st11">+</text>
	<text transform="matrix(1 0 0 1 154.1251 149.5601)" class="st12 st10 st11">+</text>
	<text transform="matrix(1 0 0 1 159.6951 149.5601)" class="st12 st10 st11">+</text>
	<text transform="matrix(1 0 0 1 163.1451 149.5601)" class="st12 st10 st11">+</text>
	<text transform="matrix(1 0 0 1 163.6552 149.5601)" class="st12 st10 st11">+</text>
	<text transform="matrix(1 0 0 1 171.8551 149.5601)" class="st12 st10 st11">+</text>
	<text transform="matrix(1 0 0 1 176.2351 149.5601)" class="st12 st10 st11">+</text>
	<text transform="matrix(1 0 0 1 191.2151 161.79)" class="st12 st10 st11">+</text>
	<text transform="matrix(1 0 0 1 194.4851 161.79)" class="st12 st10 st11">+</text>
	<text transform="matrix(1 0 0 1 207.9651 161.79)" class="st12 st10 st11">+</text>
	<text transform="matrix(1 0 0 1 213.8751 161.79)" class="st12 st10 st11">+</text>
	<text transform="matrix(1 0 0 1 233.1451 161.79)" class="st12 st10 st11">+</text>
	<text transform="matrix(1 0 0 1 234.7151 161.79)" class="st12 st10 st11">+</text>
	<text transform="matrix(1 0 0 1 244.5851 161.79)" class="st12 st10 st11">+</text>
	<text transform="matrix(1 0 0 1 60.96 214.92)" class="st10 st13">p = 0.014</text>
	<line class="st14" x1="57.1" y1="160.7" x2="162.4" y2="160.7"/>
	<line class="st14" x1="162.4" y1="242.6" x2="162.4" y2="160.7"/>
	<rect x="47.8" y="70.6" class="st15" width="204.9" height="180.2"/>
</g>
<rect class="st1" width="259.2" height="288"/>
<g>
	<text transform="matrix(1 0 0 1 21.7486 246.3101)" class="st16 st10 st17">0.00</text>
	<text transform="matrix(1 0 0 1 21.7486 205.36)" class="st16 st10 st17">0.25</text>
	<text transform="matrix(1 0 0 1 21.7486 164.4)" class="st16 st10 st17">0.50</text>
	<text transform="matrix(1 0 0 1 21.7486 123.45)" class="st16 st10 st17">0.75</text>
	<text transform="matrix(1 0 0 1 21.7486 82.49)" class="st16 st10 st17">1.00</text>
	<line class="st18" x1="44.6" y1="242.6" x2="47.8" y2="242.6"/>
	<line class="st18" x1="44.6" y1="201.6" x2="47.8" y2="201.6"/>
	<line class="st18" x1="44.6" y1="160.7" x2="47.8" y2="160.7"/>
	<line class="st18" x1="44.6" y1="119.7" x2="47.8" y2="119.7"/>
	<line class="st18" x1="44.6" y1="78.8" x2="47.8" y2="78.8"/>
	<line class="st18" x1="57.1" y1="254" x2="57.1" y2="250.8"/>
	<line class="st18" x1="103.7" y1="254" x2="103.7" y2="250.8"/>
	<line class="st18" x1="150.3" y1="254" x2="150.3" y2="250.8"/>
	<line class="st18" x1="196.8" y1="254" x2="196.8" y2="250.8"/>
	<line class="st18" x1="243.4" y1="254" x2="243.4" y2="250.8"/>
	<text transform="matrix(1 0 0 1 54.238 264.05)" class="st16 st10 st17">0</text>
	<text transform="matrix(1 0 0 1 100.808 264.05)" class="st16 st10 st17">3</text>
	<text transform="matrix(1 0 0 1 147.3781 264.05)" class="st16 st10 st17">6</text>
	<text transform="matrix(1 0 0 1 193.948 264.05)" class="st16 st10 st17">9</text>
	<text transform="matrix(1 0 0 1 237.626 264.05)" class="st16 st10 st17">12</text>
	<rect x="111.5" y="267.6" class="st1" width="77.5" height="15.4"/>
	<text transform="matrix(1 0 0 1 111.5015 278.79)" class="st19"><tspan x="0" y="0" class="st10 st20">Time</tspan><tspan x="28.9" y="0" class="st10 st20"> </tspan><tspan x="32.3" y="0" class="st10 st20">in</tspan><tspan x="42.4" y="0" class="st10 st20"> </tspan><tspan x="45.8" y="0" class="st10 st20">years</tspan></text>
	<text transform="matrix(6.123234e-17 -1 1 6.123234e-17 15.79 215.2422)" class="st10 st20">Survival probability</text>
	<rect x="21.1" y="27.4" class="st0" width="258.3" height="30.2"/>
	<rect x="27.6" y="36" class="st1" width="34.7" height="15.4"/>
	<text transform="matrix(1 0 0 1 27.5801 47.1699)" class="st10 st20">Strata</text>
	<rect x="68.7" y="33.9" class="st0" width="17.3" height="17.3"/>
	<line class="st5" x1="70.5" y1="42.5" x2="84.3" y2="42.5"/>
	<rect x="69.4" y="34.6" class="st7" width="15.9" height="15.9"/>
	<text transform="matrix(1 0 0 1 73.3651 47.36)" class="st9 st10 st11">+</text>
	<rect x="176.1" y="33.9" class="st0" width="17.3" height="17.3"/>
	<line class="st6" x1="177.9" y1="42.5" x2="191.7" y2="42.5"/>
	<rect x="176.8" y="34.6" class="st8" width="15.9" height="15.9"/>
	<text transform="matrix(1 0 0 1 180.7451 47.36)" class="st12 st10 st11">+</text>
	<text transform="matrix(1 0 0 1 92.5 46.24)" class="st10 st17">Expression=high</text>
	<text transform="matrix(1 0 0 1 199.88 46.24)" class="st10 st17">Expression=low</text>
	<text transform="matrix(1 0 0 1 47.82 17.64)" class="st10 st21">c9orf50 in COAD</text>
</g>
</svg>
